HIERARCHY
ROOT hip
{
  OFFSET -6.84061 85.4448 2.99648
  CHANNELS 6 Xposition Yposition Zposition Zrotation Xrotation Yrotation
  JOINT abdomen
  {
    OFFSET 0 20.6881 -0.73152
    CHANNELS 3 Zrotation Xrotation Yrotation
    JOINT chest
    {
      OFFSET 0 11.7043 -0.48768
      CHANNELS 3 Zrotation Xrotation Yrotation
      JOINT neck
      {
        OFFSET 0 22.1894 -2.19456
        CHANNELS 3 Zrotation Xrotation Yrotation
        JOINT head
        {
          OFFSET -0.24384 7.07133 1.2192
          CHANNELS 3 Zrotation Xrotation Yrotation
          JOINT leftEye
          {
            OFFSET 4.14528 8.04674 8.04672
            CHANNELS 3 Zrotation Xrotation Yrotation
            End Site
            {
              OFFSET 1 0 0
            }
          }
          JOINT rightEye
          {
            OFFSET -3.6576 8.04674 8.04672
            CHANNELS 3 Zrotation Xrotation Yrotation
            End Site
            {
              OFFSET 1 0 0
            }
          }
        }
      }
      JOINT rCollar
      {
        OFFSET -2.68224 19.2634 -4.8768
        CHANNELS 3 Zrotation Xrotation Yrotation
        JOINT rShldr
        {
          OFFSET -8.77824 -1.95073 1.46304
          CHANNELS 3 Zrotation Xrotation Yrotation
          JOINT rForeArm
          {
            OFFSET -28.1742 -1.7115 0.48768
            CHANNELS 3 Zrotation Xrotation Yrotation
            JOINT rHand
            {
              OFFSET -22.5879 0.773209 7.07136
              CHANNELS 3 Zrotation Xrotation Yrotation
              JOINT rThumb1
              {
                OFFSET -1.2192 -0.487915 3.41376
                CHANNELS 3 Zrotation Xrotation Yrotation
                JOINT rThumb2
                {
                  OFFSET -3.37035 -0.52449 3.41376
                  CHANNELS 3 Zrotation Xrotation Yrotation
                  End Site
                  {
                    OFFSET -1.78271 -1.18214 1.43049
                  }
                }
              }
              JOINT rIndex1
              {
                OFFSET -7.75947 0.938293 5.60832
                CHANNELS 3 Zrotation Xrotation Yrotation
                JOINT rIndex2
                {
                  OFFSET -2.54057 -0.884171 1.56538
                  CHANNELS 3 Zrotation Xrotation Yrotation
                  End Site
                  {
                    OFFSET -1.62519 -0.234802 1.16502
                  }
                }
              }
              JOINT rMid1
              {
                OFFSET -8.24714 1.18213 3.41376
                CHANNELS 3 Zrotation Xrotation Yrotation
                JOINT rMid2
                {
                  OFFSET -3.10165 -0.590103 1.0647
                  CHANNELS 3 Zrotation Xrotation Yrotation
                  End Site
                  {
                    OFFSET -2.48547 -0.328903 0.83742
                  }
                }
              }
              JOINT rRing1
              {
                OFFSET -8.82822 0.546677 1.51678
                CHANNELS 3 Zrotation Xrotation Yrotation
                JOINT rRing2
                {
                  OFFSET -2.60934 -0.819778 -0.0198488
                  CHANNELS 3 Zrotation Xrotation Yrotation
                  End Site
                  {
                    OFFSET -2.33842 -0.294052 0.168128
                  }
                }
              }
              JOINT rPinky1
              {
                OFFSET -8.27202 -0.0477905 -0.4584
                CHANNELS 3 Zrotation Xrotation Yrotation
                JOINT rPinky2
                {
                  OFFSET -1.82734 -0.647385 -0.700984
                  CHANNELS 3 Zrotation Xrotation Yrotation
                  End Site
                  {
                    OFFSET -1.69225 -0.51767 -0.607171
                  }
                }
              }
            }
          }
        }
      }
      JOINT lCollar
      {
        OFFSET 2.68224 19.2634 -4.8768
        CHANNELS 3 Zrotation Xrotation Yrotation
        JOINT lShldr
        {
          OFFSET 8.77824 -1.95073 1.46304
          CHANNELS 3 Zrotation Xrotation Yrotation
          JOINT lForeArm
          {
            OFFSET 28.1742 -1.7115 0.48768
            CHANNELS 3 Zrotation Xrotation Yrotation
            JOINT lHand
            {
              OFFSET 22.5879 0.773209 7.07136
              CHANNELS 3 Zrotation Xrotation Yrotation
              JOINT lThumb1
              {
                OFFSET 1.2192 -0.487915 3.41376
                CHANNELS 3 Zrotation Xrotation Yrotation
                JOINT lThumb2
                {
                  OFFSET 3.37035 -0.52449 3.41376
                  CHANNELS 3 Zrotation Xrotation Yrotation
                  End Site
                  {
                    OFFSET 1.78271 -1.18214 1.43049
                  }
                }
              }
              JOINT lIndex1
              {
                OFFSET 7.75947 0.938293 5.60832
                CHANNELS 3 Zrotation Xrotation Yrotation
                JOINT lIndex2
                {
                  OFFSET 2.54057 -0.884171 1.56538
                  CHANNELS 3 Zrotation Xrotation Yrotation
                  End Site
                  {
                    OFFSET 1.62519 -0.234802 1.16502
                  }
                }
              }
              JOINT lMid1
              {
                OFFSET 8.24714 1.18213 3.41376
                CHANNELS 3 Zrotation Xrotation Yrotation
                JOINT lMid2
                {
                  OFFSET 3.10165 -0.590103 1.0647
                  CHANNELS 3 Zrotation Xrotation Yrotation
                  End Site
                  {
                    OFFSET 2.48547 -0.328903 0.83742
                  }
                }
              }
              JOINT lRing1
              {
                OFFSET 8.82822 0.546677 1.51678
                CHANNELS 3 Zrotation Xrotation Yrotation
                JOINT lRing2
                {
                  OFFSET 2.60934 -0.819778 -0.0198488
                  CHANNELS 3 Zrotation Xrotation Yrotation
                  End Site
                  {
                    OFFSET 2.33842 -0.294052 0.168128
                  }
                }
              }
              JOINT lPinky1
              {
                OFFSET 8.27202 -0.0477905 -0.4584
                CHANNELS 3 Zrotation Xrotation Yrotation
                JOINT lPinky2
                {
                  OFFSET 1.82734 -0.647385 -0.700984
                  CHANNELS 3 Zrotation Xrotation Yrotation
                  End Site
                  {
                    OFFSET 1.69225 -0.51767 -0.607171
                  }
                }
              }
            }
          }
        }
      }
    }
  }
  JOINT rButtock
  {
    OFFSET -8.77824 4.35084 1.2192
    CHANNELS 3 Zrotation Xrotation Yrotation
    JOINT rThigh
    {
      OFFSET 0 -1.70687 -2.19456
      CHANNELS 3 Zrotation Xrotation Yrotation
      JOINT rShin
      {
        OFFSET 0 -36.8199 0.73152
        CHANNELS 3 Zrotation Xrotation Yrotation
        JOINT rFoot
        {
          OFFSET 0.73152 -45.1104 -5.12064
          CHANNELS 3 Zrotation Xrotation Yrotation
          End Site
          {
            OFFSET -1.1221 -3.69964 12.103
          }
        }
      }
    }
  }
  JOINT lButtock
  {
    OFFSET 8.77824 4.35084 1.2192
    CHANNELS 3 Zrotation Xrotation Yrotation
    JOINT lThigh
    {
      OFFSET 0 -1.70687 -2.19456
      CHANNELS 3 Zrotation Xrotation Yrotation
      JOINT lShin
      {
        OFFSET 0 -36.8199 0.73152
        CHANNELS 3 Zrotation Xrotation Yrotation
        JOINT lFoot
        {
          OFFSET -0.73152 -45.1104 -5.12064
          CHANNELS 3 Zrotation Xrotation Yrotation
          End Site
          {
            OFFSET 1.1221 -3.69964 12.103
          }
        }
      }
    }
  }
}
MOTION
Frames:	4
Frame Time:	0.00833333
-13.9786 85.0966 18.0944 -0.215666 -0.00122101 0.00365412 0.283893 -0.0029139 0.00816071 0.0784589 -0.00473297 0.0135944 -6.87135e-015 7.95139e-016 -6.212e-018 -2.05897e-014 9.54166e-015 -3.26131e-017 -0 0 0 -0 0 0 -3.38078e-015 -3.88251e-019 9.93923e-017 -7.12192e-014 2.54693e-016 5.96354e-016 -1.24693e-012 3.73119e-013 -1.27222e-014 -1.42837e-011 -3.75504e-013 -2.22639e-014 -3.36947e-011 -1.13638e-014 -6.36111e-014 -5.82045e-011 -2.54444e-014 -1.29608e-013 -3.3692e-011 -1.19271e-014 -7.63333e-014 7.73091 5.47488 0.417314 -3.3696e-011 -1.20265e-014 -6.99722e-014 2.90554 0.965183 0.102902 -3.36861e-011 -1.13307e-014 -7.79236e-014 10.2786 0.731801 0.0259123 -3.36956e-011 -9.1441e-015 -7.31528e-014 2.22167 -0.733487 -0.20892 -3.47752e-015 0 -9.93923e-017 -7.47323e-014 2.48481e-016 -1.59028e-015 -1.25055e-012 -3.75504e-013 4.13472e-014 -1.42883e-011 3.66062e-013 -7.95139e-014 -3.37046e-011 -2.53472e-014 -8.90555e-014 -5.82034e-011 -4.45278e-014 -1.44715e-013 -3.37115e-011 -2.70347e-014 -8.5875e-014 -7.73091 5.47488 -0.417314 -3.37042e-011 -2.5345e-014 -8.26944e-014 -2.90554 0.965183 -0.102902 -3.37097e-011 -2.54444e-014 -8.11041e-014 -10.2786 0.731801 -0.0259123 -3.37002e-011 -2.14687e-014 -7.63333e-014 -2.22167 -0.733487 0.20892 -2.03217e-016 0 -3.88251e-019 0.668922 -3.85853 -0.0572483 -0.00341791 1.43794 -0.0274406 -0.455265 2.42105 0.100331 2.03217e-016 0 3.88251e-019 -0.234815 -2.72419 0.0299385 0.0066264 -0.616661 0.0579722 0.449429 3.34127 -0.11794 
-7.7245 83.9717 12.5048 -11.5035 20.0215 -27.1698 2.14797 -1.03502 -1.69572 0.547197 -0.788002 -0.454545 -2.47892 -0.111485 -2.40703 3.53637 2.10754 -4.08376 -0 0 0 -0 0 0 -2.18761e-014 1.33293e-013 6.98581e-015 18.105 5.65382 3.66936 -20.2973 -18.0664 15.158 0.155703 -8.77901 -1.1823 -1.16268e-010 9.72722e-011 -2.15783e-010 -1.95932e-010 1.69279e-010 -3.73696e-010 -1.16262e-010 9.7275e-011 -2.15804e-010 7.73091 5.47488 0.417314 -1.16269e-010 9.72719e-011 -2.15789e-010 2.90554 0.965183 0.102902 -1.16261e-010 9.72727e-011 -2.15796e-010 10.2786 0.731801 0.0259123 -1.16269e-010 9.72751e-011 -2.15793e-010 2.22167 -0.733487 -0.20892 -2.19581e-014 1.33291e-013 6.72917e-015 -23.3049 8.08621 -0.253645 4.40629 -2.04058 -6.84004 -0.118721 -7.65601 1.04161 8.07527e-012 5.78838e-011 -1.59981e-010 1.57264e-011 1.00165e-010 -2.74931e-010 8.06771e-012 5.78828e-011 -1.59976e-010 -7.73091 5.47488 -0.417314 8.07539e-012 5.78833e-011 -1.59977e-010 -2.90554 0.965183 -0.102902 8.07026e-012 5.78838e-011 -1.59973e-010 -10.2786 0.731801 -0.0259123 8.0799e-012 5.78858e-011 -1.59976e-010 -2.22167 -0.733487 0.20892 -2.03217e-016 0 -3.88251e-019 2.87654 -5.39209 6.76059 -0.00701195 5.02416 0.00202542 -0.633117 2.5573 -8.74105 2.03217e-016 0 3.88251e-019 3.05882 -5.24804 -3.27567 0.00461276 4.38466 -0.0390691 0.776785 0.381975 3.75969 
-7.7581 84.0227 12.2099 -4.78697 25.7341 -61.4072 4.07887 -2.11148 -3.5046 1.0265 -1.6147 -0.951373 -5.11743 -0.186311 -4.93988 7.64462 4.2088 -8.39787 -0 0 0 -0 0 0 -4.38592e-014 2.81153e-013 1.68563e-014 36.4934 11.5493 7.53212 -30.2134 -32.657 35.9437 -0.0918477 -18.0057 -2.52245 -2.28832e-010 2.16163e-010 -4.87018e-010 -3.84115e-010 3.76337e-010 -8.43604e-010 -2.28822e-010 2.16169e-010 -4.87047e-010 7.73091 5.47488 0.417314 -2.28833e-010 2.16163e-010 -4.87022e-010 2.90554 0.965183 0.102902 -2.28826e-010 2.16164e-010 -4.87029e-010 10.2786 0.731801 0.0259123 -2.28833e-010 2.16167e-010 -4.87027e-010 2.22167 -0.733487 -0.20892 -4.39257e-014 2.81147e-013 1.65364e-014 -47.869 16.6208 -0.547086 8.54289 -4.10392 -14.1052 0.0690777 -15.7347 2.20556 4.26625e-011 1.33114e-010 -3.6446e-010 7.77812e-011 2.30219e-010 -6.26727e-010 4.26543e-011 1.33114e-010 -3.64454e-010 -7.73091 5.47488 -0.417314 4.26623e-011 1.33113e-010 -3.64459e-010 -2.90554 0.965183 -0.102902 4.26577e-011 1.33114e-010 -3.64452e-010 -10.2786 0.731801 -0.0259123 4.26673e-011 1.33114e-010 -3.64465e-010 -2.22167 -0.733487 0.20892 -2.03217e-016 0 -3.88251e-019 5.63005 -6.87037 13.9846 -0.015146 8.81393 0.0320594 -0.746129 2.70934 -18.0628 2.03217e-016 0 3.88251e-019 6.25129 -7.89373 -6.77818 0.0212856 9.69485 -0.1437 1.55213 -2.72005 7.82453 
-7.80511 84.0833 11.8911 2.2328 12.6432 -84.4891 5.692 -3.0883 -5.11009 1.44625 -2.35392 -1.39187 -7.46478 -0.332095 -7.2212 11.5072 6.19397 -12.316 -0 0 0 -0 0 0 -5.88669e-014 3.99881e-013 2.07586e-014 52.0767 16.6772 11.4418 -29.8641 -37.2041 59.2243 -0.725547 -26.2895 -3.91031 -2.81415e-010 2.91839e-010 -6.47223e-010 -4.71386e-010 5.07887e-010 -1.12083e-009 -2.81402e-010 2.91849e-010 -6.47259e-010 7.73091 5.47488 0.417314 -2.81415e-010 2.9184e-010 -6.47227e-010 2.90554 0.965183 0.102902 -2.81409e-010 2.91841e-010 -6.47233e-010 10.2786 0.731801 0.0259123 -2.81415e-010 2.91844e-010 -6.47231e-010 2.22167 -0.733487 -0.20892 -5.89192e-014 3.99873e-013 2.03863e-014 -69.6822 24.2566 -0.826327 11.7857 -5.7735 -20.6163 0.539409 -22.9363 3.36315 9.16351e-011 1.73702e-010 -4.79764e-010 1.63586e-010 3.00583e-010 -8.24503e-010 9.16261e-011 1.73703e-010 -4.79757e-010 -7.73091 5.47488 -0.417314 9.16346e-011 1.73701e-010 -4.79766e-010 -2.90554 0.965183 -0.102902 9.16302e-011 1.73702e-010 -4.79756e-010 -10.2786 0.731801 -0.0259123 9.164e-011 1.737e-010 -4.79777e-010 -2.22167 -0.733487 0.20892 -2.03217e-016 0 -3.88251e-019 8.36371 -8.03545 20.5162 -0.0254576 12.1966 0.0623236 -0.877441 2.61517 -26.427 2.03217e-016 0 3.88251e-019 8.7651 -10.1677 -10.0043 0.0525908 14.3872 -0.24034 2.62854 -5.42245 11.5668 
